<svg width="619" height="80" viewBox="0 0 619 80" fill="none" xmlns="http://www.w3.org/2000/svg">
<path d="M364.998 3.46113C370.998 -0.126628 391.635 0.352442 411.996 0.471334C426.848 0.558057 530.166 0.200071 584.989 0C584.989 0 600.258 0.471357 609.988 14.2244C619.718 27.9775 618.988 45.9163 618.988 45.9163V80H321C321 80 343.499 72.8246 343.499 43.5245C343.499 14.2244 358.998 7.0489 364.998 3.46113Z" fill="#E5E5A8"/>
<path d="M254.002 3.46113C248.002 -0.126628 227.365 0.352442 207.004 0.471334C192.152 0.558057 88.8336 0.200071 34.0111 0C34.0111 0 18.7425 0.471357 9.01211 14.2244C-0.718288 27.9775 0.0124612 45.9163 0.0124612 45.9163V80H298C298 80 275.501 72.8246 275.501 43.5245C275.501 14.2244 260.002 7.0489 254.002 3.46113Z" fill="#E5E5A8"/>
</svg>
